Patient4_TMGait_0pt7_02_right_30_GRF.mot
version=1
nRows=39
nColumns=19
inDegrees=no
endheader
time	F1x	F1y	F1z	M1x	M1y	M1z	F2x	F2y	F2z	M2x	M2y	M2z	EC1x	EC1y	EC1z	EC2x	EC2y	EC2z
33.68	34.3888	801.4585	68.6471	-271.0815	-64.4411	887.6806	19.2125	-21.0731	-31.042	3.6488	17.1705	-26.459	-0.0592	0.0182	-0.0073	-0.0462	0.0165	0.9585
33.6916	26.468	799.9611	71.5569	-270.2666	-68.994	875.328	12.714	-12.7037	-20.9176	3.0127	11.6695	-16.053	-0.0592	0.0182	-0.0073	-0.0462	0.0165	0.9585
33.7031	19.9034	796.2617	73.6346	-268.6825	-72.27	861.3416	7.3076	-5.6257	-12.3321	2.4743	6.9723	-7.257	-0.0592	0.0182	-0.0073	-0.0462	0.0165	0.9585
33.7147	14.9951	790.0815	74.7333	-266.262	-74.0604	845.9635	3.2183	-0.20443	-5.7768	2.0776	3.3684	-0.50892	-0.0592	0.0182	-0.0073	-0.0462	0.0165	0.9585
33.7263	11.6459	781.4562	74.8466	-263.0426	-74.4157	829.3388	0.42131	3.5771	-1.2464	1.8208	0.86932	4.195	-0.0592	0.0182	-0.0073	-0.0462	0.0165	0.9585
33.7379	9.6012	770.7051	74.1029	-259.1515	-73.5579	811.6955	-1.3163	5.9469	1.5558	1.6766	-0.67138	7.1559	-0.0592	0.0182	-0.0073	-0.0462	0.0165	0.9585
33.7494	8.579	758.4179	72.6731	-254.8017	-71.7532	793.3672	-2.2467	7.174	3.0303	1.595	-1.4695	8.6982	-0.0592	0.0182	-0.0073	-0.0462	0.0165	0.9585
33.761	8.301	745.3506	70.7662	-250.256	-69.2912	774.8434	-2.6408	7.5458	3.5755	1.5265	-1.7376	9.1873	-0.0592	0.0182	-0.0073	-0.0462	0.0165	0.9585
33.7726	8.6209	732.3834	68.5805	-245.8084	-66.4122	756.7446	-2.708	7.227	3.5489	1.4061	-1.68	8.8193	-0.0592	0.0182	-0.0073	-0.0462	0.0165	0.9585
33.7841	9.399	720.3786	66.3016	-241.7387	-63.3264	739.7268	-2.6252	6.327	3.2118	1.1722	-1.4383	7.7362	-0.0592	0.0182	-0.0073	-0.0462	0.0165	0.9585
33.7957	10.6182	710.0371	64.1003	-238.2711	-60.1934	724.3469	-2.4925	4.8384	2.7525	0.75661	-1.1267	5.9173	-0.0592	0.0182	-0.0073	-0.0462	0.0165	0.9585
33.8073	12.2799	701.8904	62.1285	-235.5613	-57.1461	711.0589	-2.3739	2.7354	2.2899	0.10545	-0.81749	3.3348	-0.0592	0.0182	-0.0073	-0.0462	0.0165	0.9585
33.8189	14.4162	696.1187	60.5258	-233.6474	-54.2994	699.9782	-2.2404	-0.0081295	1.8914	-0.81288	-0.57058	-0.049628	-0.0592	0.0182	-0.0073	-0.0462	0.0165	0.9585
33.8304	17.0557	692.6588	59.3928	-232.4745	-51.7343	691.0495	-2.0482	-3.3044	1.5827	-1.9743	-0.42149	-4.1243	-0.0592	0.0182	-0.0073	-0.0462	0.0165	0.9585
33.842	20.2239	691.143	58.7967	-231.8876	-49.5058	683.9294	-1.6924	-6.8795	1.3756	-3.2705	-0.42187	-8.5524	-0.0592	0.0182	-0.0073	-0.0462	0.0165	0.9585
33.8536	23.873	691.083	58.752	-231.6907	-47.6416	678.1939	-1.046	-10.1205	1.2661	-4.4613	-0.62583	-12.5752	-0.0592	0.0182	-0.0073	-0.0462	0.0165	0.9585
33.8651	27.9985	691.9849	59.2442	-231.6954	-46.1378	673.4185	0.04879	-11.9935	1.264	-5.1402	-1.1101	-14.9388	-0.0592	0.0182	-0.0073	-0.0462	0.0165	0.9585
33.8767	32.5174	693.4223	60.2398	-231.7485	-44.9967	669.278	1.742	-10.9077	1.3761	-4.6849	-1.9433	-13.7106	-0.0592	0.0182	-0.0073	-0.0462	0.0165	0.9585
33.8883	37.3586	695.095	61.6781	-231.7529	-44.1956	665.5253	4.147	-4.6652	1.6095	-2.2374	-3.1664	-6.2111	-0.0592	0.0182	-0.0073	-0.0462	0.0165	0.9585
33.8999	42.4203	696.7272	63.4829	-231.6328	-43.7046	661.9722	7.2509	9.4699	1.9696	3.2694	-4.7648	10.8947	-0.0592	0.0182	-0.0073	-0.0462	0.0165	0.9585
33.9114	47.6017	697.9205	65.4994	-231.2948	-43.415	658.2669	10.8659	34.5632	2.4466	13.0231	-6.6275	41.3514	-0.0592	0.0182	-0.0073	-0.0462	0.0165	0.9585
33.923	52.746	697.9745	67.4998	-230.5579	-43.166	653.8233	14.4672	73.4157	3.0148	28.1088	-8.493	88.5908	-0.0592	0.0182	-0.0073	-0.0462	0.0165	0.9585
33.9346	57.6777	695.6645	69.152	-229.0809	-42.7173	647.5525	17.0921	127.6686	3.5907	49.1533	-9.86	154.6363	-0.0592	0.0182	-0.0073	-0.0462	0.0165	0.9585
33.9461	62.0947	689.2514	70.0706	-226.3529	-41.8226	637.9169	17.2098	196.3372	4.043	75.7575	-9.9529	238.3302	-0.0592	0.0182	-0.0073	-0.0462	0.0165	0.9585
33.9577	65.6864	676.5667	69.8739	-221.7182	-40.246	622.9776	12.6707	273.8689	4.1286	105.7515	-7.6617	332.9874	-0.0592	0.0182	-0.0073	-0.0462	0.0165	0.9585
33.9693	68.0548	655.5039	68.2384	-214.5195	-37.8328	600.8718	2.0391	349.1207	3.2784	134.7922	-1.8566	425.1303	-0.0592	0.0182	-0.0073	-0.0462	0.0165	0.9585
33.9809	68.838	624.4936	65.0557	-204.256	-34.624	570.172	-12.234	410.2784	-0.10648	158.269	8.2221	500.2798	-0.0592	0.0182	-0.0073	-0.0462	0.0165	0.9585
33.9924	67.7905	583.1958	60.4221	-190.7929	-30.7976	530.6052	-27.0737	454.8774	-5.9299	175.1231	21.2003	555.1292	-0.0592	0.0182	-0.0073	-0.0462	0.0165	0.9585
34.004	64.8305	532.5061	54.7475	-174.3631	-26.7347	483.0088	-40.5915	487.3116	-12.908	187.0393	35.0134	594.6365	-0.0592	0.0182	-0.0073	-0.0462	0.0165	0.9585
34.0156	60.1298	474.0744	48.583	-155.4396	-22.8471	428.8567	-51.6009	513.7271	-21.1357	196.4036	49.1447	626.1833	-0.0592	0.0182	-0.0073	-0.0462	0.0165	0.9585
34.0271	53.8475	410.3124	42.2652	-134.7463	-19.3558	370.3444	-59.7319	539.4313	-28.9089	205.3458	61.6674	656.0571	-0.0592	0.0182	-0.0073	-0.0462	0.0165	0.9585
34.0387	46.2437	343.9939	36.0615	-113.1539	-16.4082	309.9273	-65.1603	566.7183	-36.4302	214.7992	72.6744	687.1302	-0.0592	0.0182	-0.0073	-0.0462	0.0165	0.9585
34.0503	37.6421	278.3282	30.1232	-91.687	-14.0303	250.4872	-67.986	596.3541	-42.7626	225.1064	81.2689	720.1973	-0.0592	0.0182	-0.0073	-0.0462	0.0165	0.9585
34.0619	28.6691	216.3914	24.6156	-71.3619	-12.1697	194.6663	-68.5281	627.8786	-48.7065	236.0389	88.3667	754.782	-0.0592	0.0182	-0.0073	-0.0462	0.0165	0.9585
34.0734	20.0114	160.9193	19.6617	-53.0875	-10.6984	144.8518	-67.0679	659.8786	-54.2168	247.0422	94.0999	789.1999	-0.0592	0.0182	-0.0073	-0.0462	0.0165	0.9585
34.085	12.4612	113.5822	15.3014	-37.4504	-9.3863	102.3905	-64.192	690.3273	-59.749	257.2908	99.1672	821.2476	-0.0592	0.0182	-0.0073	-0.0462	0.0165	0.9585
34.0966	6.3778	75.1298	11.5114	-24.7274	-8.0828	67.9451	-60.5746	717.0451	-65.3566	265.9607	103.8833	848.519	-0.0592	0.0182	-0.0073	-0.0462	0.0165	0.9585
34.1081	1.9823	45.4472	8.2112	-14.9129	-6.6469	41.3206	-56.767	738.6398	-70.8294	272.5372	108.231	869.5623	-0.0592	0.0182	-0.0073	-0.0462	0.0165	0.9585
34.1197	-0.84677	23.8989	5.4192	-7.8001	-5.1335	22.0136	-52.997	754.6233	-75.9097	276.8959	111.9983	883.9099	-0.0592	0.0182	-0.0073	-0.0462	0.0165	0.9585
